<?xml version="1.0" encoding="UTF-8"?>
<svg version="1.1" xmlns="http://www.w3.org/2000/svg" width="512" height="512">
<path d="M0 0 C1.49170699 1.27716368 2.97184971 2.56801644 4.4375 3.875 C5.81153378 5.04280448 7.18643725 6.20958702 8.5625 7.375 C9.51125 8.2 10.46 9.025 11.4375 9.875 C11.7675 8.885 12.0975 7.895 12.4375 6.875 C31.24420863 -10.63079345 52.40936175 -17.16978999 77.82421875 -16.50390625 C106.11629835 -15.21808585 131.07817691 -1.30796663 150.08056641 19.3359375 C171.43801374 43.56000155 177.18007795 73.37489529 175.4375 104.875 C172.38898089 134.81341781 152.48743319 160.1962099 129.95703125 178.8203125 C127.11446864 181.0959159 124.21683579 183.29447286 121.30029297 185.47412109 C119.31109037 186.97006402 117.34384036 188.49186809 115.37890625 190.01953125 C106.29423068 197.06564809 97.00998268 203.77001127 87.59228516 210.36132812 C73.60930465 220.18395209 59.96964918 230.44251784 46.4375 240.875 C45.7563916 241.39868164 45.0752832 241.92236328 44.37353516 242.46191406 C36.05880273 248.86647616 28.02326382 255.54760918 20.10205078 262.43212891 C17.224989 264.92603256 14.33077262 267.39994025 11.4375 269.875 C7.44724911 268.00827239 4.40423749 265.39695009 1.125 262.5 C-14.54688553 248.87729287 -31.06831274 236.36196347 -48.06591797 224.4453125 C-54.02867461 220.26473192 -59.9343909 216.00925127 -65.82714844 211.73071289 C-69.50059301 209.06853759 -73.18598388 206.429 -76.9140625 203.84375 C-89.06164322 195.41518296 -100.71031462 186.40321883 -111.72265625 176.5234375 C-113.08780696 175.30030884 -114.47409421 174.10068479 -115.87109375 172.9140625 C-137.76262848 153.99376572 -152.74373467 128.30716039 -155.28881836 99.2409668 C-157.16474964 70.96646231 -149.09163541 42.60313983 -130.5625 20.875 C-98.72798685 -15.14058848 -40.75588032 -32.23419625 0 0 Z M-4.5625 74.875 C-4.5625 84.775 -4.5625 94.675 -4.5625 104.875 C-14.4625 104.875 -24.3625 104.875 -34.5625 104.875 C-34.5625 114.775 -34.5625 124.675 -34.5625 134.875 C-24.6625 134.875 -14.7625 134.875 -4.5625 134.875 C-4.5625 144.775 -4.5625 154.675 -4.5625 164.875 C5.0075 164.875 14.5775 164.875 24.4375 164.875 C24.4375 154.975 24.4375 145.075 24.4375 134.875 C34.3375 134.875 44.2375 134.875 54.4375 134.875 C54.4375 124.975 54.4375 115.075 54.4375 104.875 C44.5375 104.875 34.6375 104.875 24.4375 104.875 C24.4375 94.975 24.4375 85.075 24.4375 74.875 C14.8675 74.875 5.2975 74.875 -4.5625 74.875 Z " fill="#5E6EFF" transform="translate(245.5625,16.125)"/>
<path d="M0 0 C6.06332384 3.38418075 8.09391446 9.10251766 10.06640625 15.41015625 C16.03256249 36.5889439 15.36570355 58.59014374 15.31765366 80.3873291 C15.31245768 82.895429 15.31050963 85.40351651 15.30899048 87.91162109 C15.28785692 107.9687052 15.08052719 127.98262548 13.6875 148 C13.62873688 148.863974 13.56997375 149.727948 13.50942993 150.61810303 C12.8769987 159.55838587 11.88926505 168.41042216 10.52734375 177.26953125 C10.40872482 178.04679565 10.2901059 178.82406006 10.16789246 179.62487793 C6.55314557 201.84117695 -7.84956839 220.40799728 -22.734375 236.5234375 C-23.98667683 237.89233295 -25.23078729 239.2694282 -26.43774414 240.6784668 C-31.20491957 246.24264884 -36.29816577 251.45136492 -41.48803711 256.6184082 C-42.93524385 258.06025221 -44.37702026 259.50737116 -45.81835938 260.95507812 C-50.51621374 265.65595109 -55.2792315 270.21897889 -60.32641602 274.54467773 C-62.4928483 276.42857311 -64.50151204 278.4400201 -66.5 280.5 C-69.1877846 283.2244154 -71.89816863 285.83260312 -74.8125 288.3125 C-80.02684889 292.7834377 -84.78969552 297.71229658 -89.61279297 302.59570312 C-92.59046562 305.61005953 -95.57966018 308.60191346 -98.65625 311.515625 C-117.41067487 329.54872584 -130.11863 349.51406335 -136 375 C-166.03 375 -196.06 375 -227 375 C-227.08032734 343.94455907 -227.08032734 343.94455907 -227.10050774 328.50376606 C-227.11155122 320.18339542 -227.12552781 311.86306528 -227.15087891 303.54272461 C-227.17095424 296.95071266 -227.18374959 290.3587314 -227.18817699 283.76668972 C-227.19076071 280.28351882 -227.19673521 276.80043565 -227.21146011 273.31729317 C-227.34202569 241.10490089 -225.09848918 213.96176615 -201.61328125 189.515625 C-176.89597203 165.74461399 -132.06946512 139.61464964 -97.0625 138.5 C-91.09677441 138.7013747 -85.79574437 139.20202795 -81 143 C-77.59755708 146.93776061 -76.69654256 150.80268067 -77 155.9375 C-79.64577341 173.06953775 -92.71812897 185.62643137 -105.97558594 195.46630859 C-110.50602598 198.78394921 -115.0713404 202.05247517 -119.64160156 205.31494141 C-123.41511073 208.01108636 -127.17697415 210.72328784 -130.9375 213.4375 C-131.66815674 213.96432373 -132.39881348 214.49114746 -133.15161133 215.03393555 C-139.68155321 219.75075758 -146.16541121 224.52929835 -152.63256836 229.33178711 C-156.68862677 232.33534902 -160.77052338 235.24545233 -165 238 C-164.37861544 241.52468981 -162.97451007 243.70065323 -160.83984375 246.546875 C-159.8972168 247.81337891 -159.8972168 247.81337891 -158.93554688 249.10546875 C-158.27619141 249.97816406 -157.61683594 250.85085938 -156.9375 251.75 C-156.27427734 252.63816406 -155.61105469 253.52632812 -154.92773438 254.44140625 C-153.29075512 256.63189647 -151.6480412 258.81782735 -150 261 C-142.82124209 256.62958104 -136.08478965 251.9001663 -129.39404297 246.82495117 C-124.35174277 243.00294173 -119.25997398 239.25901221 -114.125 235.5625 C-113.38040527 235.0257666 -112.63581055 234.4890332 -111.86865234 233.93603516 C-108.00047611 231.1507154 -104.12561293 228.37496358 -100.24609375 225.60546875 C-73.39663991 206.40385582 -51.16195491 183.45606942 -44 150 C-42.75408032 142.13140258 -42.06855136 134.1902234 -41.3449707 126.25982666 C-40.76009984 119.88533443 -40.11321359 113.51713702 -39.46875 107.1484375 C-39.34391235 105.90609344 -39.21907471 104.66374939 -39.0904541 103.38375854 C-30.65240769 20.51701626 -30.65240769 20.51701626 -11.25 2.4375 C-7.26677044 -0.10734111 -4.78157605 -0.40521831 0 0 Z " fill="#5E6EFF" transform="translate(497,137)"/>
<path d="M0 0 C8.1237027 3.55411993 12.06978098 12.39133718 15.3203125 20.21240234 C27.95084049 52.7609406 30.87921245 89.65537198 34.140625 124.14453125 C34.71116701 130.14528159 35.30825088 136.14208865 35.9765625 142.1328125 C36.08281952 143.1426696 36.08281952 143.1426696 36.19122314 144.17292786 C39.10863261 169.5599626 55.3985805 196.75462359 75.05126953 212.66015625 C77.28353601 214.34686995 79.5400997 215.99277876 81.8125 217.625 C82.63999756 218.22691162 83.46749512 218.82882324 84.32006836 219.44897461 C86.8756259 221.30550986 89.43732405 223.15330757 92 225 C93.53674165 226.11289013 95.07321025 227.22615744 96.609375 228.33984375 C100.31787154 231.02555808 104.03232174 233.70290728 107.74853516 236.37792969 C110.04634996 238.03339288 112.34188876 239.69196457 114.63671875 241.3515625 C123.73595847 247.93191192 132.85340437 254.48562401 142 261 C152.31231729 250.51806756 152.31231729 250.51806756 158 238 C155.59768478 236.16673512 153.18372693 234.44769613 150.6875 232.75 C149.11594472 231.6619491 147.54567842 230.57203459 145.9765625 229.48046875 C145.15575195 228.90989746 144.33494141 228.33932617 143.48925781 227.75146484 C139.46543877 224.92026851 135.51389395 221.99353296 131.5625 219.0625 C125.25954166 214.39428684 118.92937149 209.76817206 112.5625 205.1875 C105.64798309 200.20358723 98.73790364 195.22213487 92 190 C91.27683594 189.44441406 90.55367188 188.88882813 89.80859375 188.31640625 C79.62050308 180.00244576 71.98752015 168.68292081 69.5625 155.6484375 C69.23795452 150.39485759 71.01646452 147.1124408 74 143 C80.96591741 137.77556194 89.66671661 138.28876395 98 139 C114.72120755 141.4839475 130.19967948 149.21055091 145 157 C145.60295898 157.31211426 146.20591797 157.62422852 146.82714844 157.94580078 C156.55771438 163.01811707 165.72490105 168.96200542 174.875 175 C175.45118073 175.37686951 176.02736145 175.75373901 176.6210022 176.14202881 C197.73229896 189.98946217 211.82593445 207.03818659 218 232 C218.77004022 236.02766219 219.12401444 239.82426584 219.12025452 243.9225769 C219.12231651 245.66405754 219.12231651 245.66405754 219.12442017 247.4407196 C219.12082489 248.70019913 219.11722961 249.95967865 219.11352539 251.25732422 C219.11324307 252.60794574 219.11340213 253.95856741 219.1139679 255.30918884 C219.11425412 258.96368921 219.1083857 262.61815657 219.10139394 266.27264929 C219.09513124 270.09632543 219.09455429 273.92000238 219.09336853 277.74368286 C219.09026381 284.97897244 219.082062 292.21424686 219.07201904 299.44952977 C219.05873817 309.23038127 219.05335106 319.01123693 219.04751682 328.79209518 C219.03812153 344.19474147 219.01819688 359.59735577 219 375 C188.97 375 158.94 375 128 375 C127.01 369.72 126.02 364.44 125 359 C123.87093309 355.98830343 122.89847458 353.55063674 121.375 350.8125 C121.02727539 350.15652832 120.67955078 349.50055664 120.32128906 348.82470703 C110.80071041 331.29104545 97.22190521 316.87557154 83.14404297 302.93823242 C81.23205738 301.04473083 79.32842351 299.14312 77.42578125 297.24023438 C71.93243653 291.76321235 66.4410415 286.34530455 60.53027344 281.31420898 C57.94416452 279.09324148 55.61530582 276.63728103 53.25 274.1875 C51.38901507 272.37820909 49.49795741 270.70069815 47.52734375 269.015625 C42.19196669 264.3778846 37.20537061 259.39141708 32.2097168 254.39501953 C30.57424118 252.76172552 28.93092292 251.1366153 27.28710938 249.51171875 C21.49252674 243.74765259 16.05619418 237.89242871 10.97265625 231.48291016 C8.85107691 228.81255596 6.65121132 226.21923573 4.4375 223.625 C-11.5749885 203.96444891 -17.8356718 183.66738703 -19.625 158.8125 C-19.74653591 157.2414697 -19.86892881 155.67050545 -19.9921875 154.09960938 C-20.35326414 149.4010778 -20.69958547 144.70284932 -21 140 C-21.08439331 138.68717041 -21.16878662 137.37434082 -21.2557373 136.02172852 C-21.90321773 125.49560555 -22.17693503 115.00555773 -22.203125 104.4609375 C-22.20595238 103.66892567 -22.20877975 102.87691383 -22.21169281 102.06090164 C-22.22650848 97.87051333 -22.2358489 93.68015789 -22.24023438 89.48974609 C-22.24461499 86.09054814 -22.25851612 82.69160458 -22.28125 79.29248047 C-22.70167896 15.10518513 -22.70167896 15.10518513 -9.1875 1.125 C-5.92236925 -0.5542101 -3.62264505 -0.43721578 0 0 Z " fill="#5E6EFF" transform="translate(22,137)"/>
</svg>
